<svg width="32px" height="32px" viewBox="0 0 48 48" fill="none" xmlns="http://www.w3.org/2000/svg" class="eudsx7t0 seo-pages-1nl2isx-MediaObjectItem" role="img" version="1.1"><path fill-rule="evenodd" clip-rule="evenodd" d="M24.579 6.56c-6.83 0-12.36 5.53-12.36 12.36 0 6.83 5.53 12.36 12.36 12.36 6.83 0 12.36-5.53 12.36-12.36 0-6.83-5.54-12.36-12.36-12.36Zm2.74 14.62.79 3.28-2.85-1.77c-.21-.13-.44-.19-.68-.19-.23 0-.47.06-.67.19l-2.85 1.77.79-3.28c.11-.47-.05-.96-.42-1.28l-2.6-2.2 3.38-.24c.48-.03.91-.34 1.09-.79l1.27-3.07 1.27 3.07c.19.45.61.75 1.09.79l3.38.24-2.59 2.2c-.36.32-.52.81-.4 1.28Z" fill="#E0CAFF"/><path fill-rule="evenodd" clip-rule="evenodd" d="m43.399 33.56-5.9-7.22c1.26-2.19 2-4.72 2-7.43C39.489 10.69 32.809 4 24.579 4s-14.92 6.69-14.92 14.92c0 2.37.57 4.61 1.56 6.61-.02.02-.04.03-.06.05-.04.03-.08.06-.12.1l-6.45 7.89c-.28.35-.37.82-.21 1.24.15.42.51.73.95.82l5.24 1.05 2.15 6.45c.16.47.57.81 1.06.86a1.253 1.253 0 0 0 1.23-.59l6.27-9.95c1.06.24 2.16.38 3.29.38.77 0 1.51-.08 2.25-.19l6.15 9.76c.24.38.65.6 1.08.6.05 0 .1 0 .15-.01.49-.06.9-.4 1.06-.86l2.15-6.45 5.24-1.05c.44-.09.8-.4.95-.82.16-.43.08-.9-.2-1.25Zm-31.18-14.64c0-6.82 5.54-12.36 12.36-12.36 6.82 0 12.36 5.54 12.36 12.36 0 6.82-5.54 12.36-12.36 12.36-6.82 0-12.36-5.55-12.36-12.36Zm23.01 16.24c.14-.43.51-.76.96-.85l3.88-.78-4.1-5.01a15.035 15.035 0 0 1-6.53 4.48l4.26 6.75 1.53-4.59Zm-20.94 4.59-1.53-4.6c-.15-.43-.51-.76-.96-.85l-3.88-.78 4.7-5.75c1.58 2.12 3.69 3.82 6.15 4.87l-4.48 7.11Zm19.23-23.09c-.26-.8-.98-1.36-1.82-1.42l-3.8-.26-1.42-3.44a2.07 2.07 0 0 0-1.91-1.28c-.84 0-1.59.5-1.91 1.28l-1.43 3.44-3.81.27c-.84.07-1.55.63-1.8 1.43-.26.8-.01 1.67.63 2.21l2.91 2.47-.89 3.68a2.064 2.064 0 0 0 3.09 2.24l3.2-1.99 3.2 1.99a2.076 2.076 0 0 0 2.3-.08c.68-.5 1-1.34.8-2.16l-.89-3.68 2.91-2.47c.66-.56.91-1.43.64-2.23Zm-5.79 3.24c-.37.31-.53.81-.42 1.28l.79 3.28-2.85-1.77c-.21-.13-.44-.19-.68-.19-.23 0-.47.06-.67.19l-2.85 1.77.79-3.28c.11-.47-.05-.96-.42-1.28l-2.6-2.2 3.38-.24c.48-.03.91-.34 1.09-.79l1.27-3.07 1.27 3.07c.19.45.61.75 1.09.79l3.38.24-2.57 2.2Z" fill="#593CFB"/></svg>