<svg width="24px" height="24px" viewBox="0 0 24 24" fill="none" xmlns="http://www.w3.org/2000/svg" class="seo-pages-0" role="img" version="1.1"><path d="M21.13 21.73H2.62c-.34 0-.62-.28-.62-.62 0-2.26 1.03-4.34 1.08-4.43.94-1.69 2.41-2.82 3.49-3.48.29-.18.68-.09.86.21.18.29.09.68-.21.86-.95.58-2.24 1.57-3.03 3 0 0-.74 1.51-.9 3.22h17.2c-.15-1.91-.95-3.17-.96-3.19-2.63-4.37-7.51-4.42-7.59-4.42-3 0-5.44-2.44-5.44-5.44 0-3 2.43-5.44 5.43-5.44 3 0 5.44 2.44 5.44 5.44 0 1.08-.32 2.13-.92 3.02a.626.626 0 1 1-1.04-.7c.46-.69.7-1.49.7-2.33 0-2.31-1.88-4.19-4.19-4.19-2.31 0-4.18 1.89-4.18 4.2 0 2.31 1.88 4.19 4.19 4.19.2 0 5.66.03 8.65 5 .04.05 1.18 1.83 1.18 4.47 0 .35-.28.63-.63.63Z" fill="#121214"/></svg>