<svg width="16px" height="16px" viewBox="0 0 24 24" fill="none" xmlns="http://www.w3.org/2000/svg" class="seo-pages-1o6k71p" role="img" version="1.1"><path fill-rule="evenodd" clip-rule="evenodd" d="M12 5.608c.139-.218.296-.44.473-.664 1.425-1.795 3.468-2.643 6.1-1.966 2.491.642 4.432 3.555 3.38 7.766-.187.752-.529 1.534-1.009 2.347-.857 1.453-2.14 2.976-3.735 4.531a45.05 45.05 0 0 1-3.276 2.881 44.219 44.219 0 0 1-1.497 1.146.75.75 0 0 1-.871-1.221 42.721 42.721 0 0 0 1.43-1.096 43.567 43.567 0 0 0 3.167-2.784c1.508-1.47 2.71-2.898 3.49-4.22.412-.695.696-1.348.846-1.947.843-3.377-.575-5.506-2.298-5.95-2.016-.518-3.473.086-4.552 1.446a6.098 6.098 0 0 0-.932 1.67c-.221.698-1.21.698-1.43 0a6.093 6.093 0 0 0-.932-1.67C9.273 4.517 7.815 3.913 5.8 4.43c-1.724.444-3.142 2.573-2.299 5.95.585 2.343 3.1 5.256 6.552 8.17a.75.75 0 0 1-.967 1.147c-3.69-3.114-6.353-6.2-7.04-8.954-1.052-4.21.889-7.124 3.38-7.766 2.633-.677 4.676.171 6.1 1.966.178.223.335.446.474.664Z" fill="#121214"/></svg>