<svg width="24px" height="24px" viewBox="0 0 24 24" fill="none" xmlns="http://www.w3.org/2000/svg" class="seo-pages-0" role="img" version="1.1"><path fill-rule="evenodd" clip-rule="evenodd" d="M7.608 7.876c-.77-.263-1.478-.643-1.968-1.19-.86-.97-1.06-2.18-.51-3.18s1.72-1.52 2.96-1.31c1.626.273 3.11 2.552 3.928 4.065.819-1.514 2.3-3.782 3.922-4.055 1.25-.21 2.41.3 2.96 1.31.55.99.35 2.21-.51 3.18-.488.542-1.192.919-1.96 1.18h3.17c.35 0 .62.28.62.62v12.66c.01.35-.27.63-.62.63H4.42c-.34 0-.62-.28-.62-.62V8.506c0-.35.28-.63.62-.63h3.188Zm-2.558 7.58v5.08h6.34v-5.08H5.05Zm6.34-1.24H5.05v-5.09h6.34v5.09Zm1.25 1.24v5.08h6.34v-5.08h-6.34Zm6.34-1.24h-6.34v-5.09h6.34v5.09ZM7.55 3.406c-.58 0-1.08.26-1.33.71-.29.52-.16 1.17.35 1.74.87.97 3.06 1.28 4.52 1.34-.84-1.62-2.16-3.58-3.21-3.76-.11-.02-.22-.03-.33-.03Zm8.93 0c-.11 0-.22.01-.34.03-1.04.18-2.36 2.14-3.2 3.76 1.46-.06 3.65-.37 4.52-1.34.51-.57.64-1.22.35-1.74-.25-.45-.75-.71-1.33-.71Z" fill="#121214"/></svg>