<svg xmlns="http://www.w3.org/2000/svg" viewBox="0 0 24 24" class="seo-pages-0" height="24px" role="img" version="1.1" width="24px"><defs><style>.cls-1{fill:#fff}.cls-2{fill:#ff3130}.cls-3{fill:#ff3131}</style></defs><g id="Layer_2" data-name="Layer 2"><g id="Layer_1-2" data-name="Layer 1"><path d="M6.67 22.74a11.9 11.9 0 0 0 10.66 0V1.26a11.9 11.9 0 0 0-10.66 0Z" style="fill: rgb(255, 255, 255);"/><path d="M6.67 1.26a12 12 0 0 0 0 21.48ZM17.33 1.26v21.48a12 12 0 0 0 0-21.48Z" style="fill: rgb(255, 49, 48);"/><path d="m15.3 12 .52-1a.08.08 0 0 0-.1-.1l-1 .51-.25-.24a.42.42 0 0 0-.6 0 .28.28 0 0 1-.33 0 .27.27 0 0 1-.14-.3l.31-1.54a.11.11 0 0 0 0-.07.11.11 0 0 0-.08 0l-1 .5-.51-1.53a.08.08 0 0 0-.14 0l-.51 1.53-1-.5a.09.09 0 0 0-.07 0s0 .05 0 .07l.31 1.54a.27.27 0 0 1-.14.3.26.26 0 0 1-.33 0 .43.43 0 0 0-.61 0l-.24.24-1-.51a.08.08 0 0 0-.08 0 .06.06 0 0 0 0 .08l.52 1-.23.22a.44.44 0 0 0-.13.33.42.42 0 0 0 .13.32l1.2 1.35h1.6l.26 1.54a.08.08 0 0 0 .07.07h.54a.08.08 0 0 0 .07-.07l.26-1.54h1.6l1.33-1.34a.42.42 0 0 0 .13-.32.44.44 0 0 0-.13-.33Z" style="fill: rgb(255, 49, 49);"/></g></g></svg>