<svg width="24px" height="24px" viewBox="0 0 24 24" fill="none" xmlns="http://www.w3.org/2000/svg" class="seo-pages-0" role="img" version="1.1"><path d="M8.5 21.63c-.1 0-.2-.02-.3-.07a.638.638 0 0 1-.32-.56v-3.81c0-.34.28-.62.62-.62.34 0 .62.28.62.62v2.65l4.86-3.2c.1-.07.22-.1.34-.1h4.63c.43 0 .84-.17 1.14-.47.31-.31.47-.71.47-1.15V4.86c0-.89-.73-1.61-1.62-1.61H4.87c-.43 0-.84.17-1.15.48-.31.31-.47.71-.47 1.14l.02 10.05c0 .89.73 1.61 1.62 1.61.34 0 .62.28.62.62 0 .34-.28.62-.62.62-1.58 0-2.86-1.28-2.87-2.86L2 4.87c0-.77.3-1.49.84-2.03C3.38 2.3 4.1 2 4.87 2h14.07c1.58 0 2.86 1.28 2.87 2.86l.02 10.05c0 .77-.3 1.49-.84 2.03-.54.54-1.26.84-2.03.84h-4.44l-5.67 3.74c-.11.07-.23.11-.35.11Z" fill="#121214"/></svg>