<svg width="24px" height="24px" viewBox="0 0 48 48" fill="none" xmlns="http://www.w3.org/2000/svg" class="seo-pages-0" role="img" version="1.1"><path d="M41.78 23.32H30.43v15.49h11.35V23.32Z" fill="#E0CAFF"/><path fill-rule="evenodd" clip-rule="evenodd" d="m26.19 18.89 3.05 4.876V38.81c0 .69.56 1.25 1.25 1.25h11.3c.69 0 1.25-.56 1.25-1.25V23.32c0-.69-.56-1.25-1.25-1.25H31.12l-2.81-4.5c-.99-1.57-1.7-3.36-2.11-5.32l-1.09-5.12c-.2-.77-.72-1.42-1.43-1.8-.71-.38-1.54-.43-2.31-.14-2.39.98-3.77 3.41-3.36 5.86l.735 5.371c-1.485-.045-3.386-.05-5.98-.05l-.015-.001h-3.6C6.86 16.37 5 18.23 5 20.52c0 .9.28 1.73.77 2.4-1.07.75-1.77 2-1.77 3.4s.7 2.65 1.77 3.4c-.49.68-.77 1.51-.77 2.4 0 1.41.7 2.65 1.77 3.4-.49.68-.77 1.51-.77 2.4a4.154 4.154 0 0 0 3.579 4.11c.1.026.204.04.311.04h3.19c8.83 0 9.4-.08 13.5-1.79.64-.27.94-1 .67-1.64-.27-.64-1.01-.93-1.64-.67-3.754 1.567-3.926 1.6-13.524 1.6H10.15c-.91 0-1.65-.74-1.65-1.65 0-.91.74-1.65 1.65-1.65a1.25 1.25 0 0 0 0-2.5h-1c-.91 0-1.65-.74-1.65-1.65 0-.91.74-1.65 1.65-1.65a1.25 1.25 0 0 0 0-2.5h-1c-.91 0-1.65-.74-1.65-1.65 0-.91.74-1.65 1.65-1.65h1a1.25 1.25 0 0 0 0-2.5c-.91 0-1.65-.74-1.65-1.65 0-.91.74-1.65 1.65-1.65h2.52c4.073 0 6.556 0 8.292.113a1.264 1.264 0 0 0 1.468-1.403l-.94-6.91c-.22-1.35.51-2.63 1.8-3.16.096-.038.182-.003.233.017l.007.003c.08.05.14.12.15.15l1.08 5.08c.47 2.24 1.29 4.3 2.43 6.13Zm5.55 18.67h8.8V24.57h-8.8v12.99Z" fill="#593CFB"/></svg>