<svg width="19.636363638000002px" height="19.636363638000002px" viewBox="0 0 24 24" fill="none" xmlns="http://www.w3.org/2000/svg" class="seo-pages-0" role="img" version="1.1"><path d="M19.09 22.25H4.87c-.34 0-.62-.28-.62-.63v-20c0-.34.28-.62.62-.62h14.21c.35 0 .62.28.62.62 0 .34-.28.62-.62.62H5.5V21h12.96V4.71c0-.34.28-.62.62-.62.34 0 .62.28.62.62v16.92c.01.34-.27.62-.61.62Z" fill="#121214"/><path d="M16.09 10.72H7.87c-.34 0-.62-.28-.62-.62 0-.34.28-.62.62-.62h8.22c.35 0 .62.28.62.62 0 .34-.27.62-.62.62ZM7.87 14.1h8.22c.35 0 .62-.29.62-.63s-.27-.62-.62-.62H7.87c-.34 0-.62.27-.62.62s.28.63.62.63ZM11.18 17.48H7.87c-.34 0-.62-.28-.62-.63s.28-.62.62-.62h3.31c.35 0 .62.28.62.62 0 .34-.28.63-.62.63ZM7.87 7.34h8.22c.35 0 .62-.28.62-.62 0-.34-.27-.62-.62-.62H7.87c-.34 0-.62.28-.62.62 0 .34.28.62.62.62Z" fill="#121214"/></svg>