<svg width="19.636363638000002px" height="19.636363638000002px" viewBox="0 0 24 24" fill="none" xmlns="http://www.w3.org/2000/svg" class="seo-pages-0" role="img" version="1.1"><path fill-rule="evenodd" clip-rule="evenodd" d="M22.5 4.782v14.452c0 .345-.28.625-.625.625h-20a.625.625 0 0 1-.625-.625V4.755c0-.344.28-.625.625-.625h20a.622.622 0 0 1 .595.434.624.624 0 0 1 .03.218Zm-1.25 13.827H2.5V5.979l7.835 5.673a2.62 2.62 0 0 0 3.08 0l7.835-5.673v12.63ZM11.07 10.64 3.803 5.38h16.142l-7.265 5.26a1.375 1.375 0 0 1-1.612 0Z" fill="#121214"/></svg>