<svg class="seo-pages-htr69o" data-testid="IconFavoriteOutline16" fill="none" height="16" viewBox="0 0 16 16" width="16" xmlns="http://www.w3.org/2000/svg" color="interactive_02"><path d="M11.09 3.22c.26 0 .55.04.84.11.02 0 2.19.71 1.44 3.74-.54 2.15-3.71 4.89-5.28 6.08-.04.03-.09.03-.13 0l-1.16-.91c-2.33-1.97-3.81-3.8-4.14-5.17C1.9 4.04 4.07 3.34 4.1 3.33c.29-.07.57-.11.84-.11 1.17 0 1.96.75 2.34 1.36l.61.84c.07.09.2.09.26 0l.62-.88c.39-.61 1.17-1.32 2.34-1.32m0-.98c-1.5 0-2.5.88-3.07 1.77 0 .01-.02.01-.03 0-.57-.89-1.57-1.77-3.07-1.77-.34 0-.7.04-1.08.14-.82.21-2.98 1.57-2.14 4.92.5 2 2.7 4.19 4.46 5.68l1.76 1.39s.1.04.15 0l.22-.15c.21-.15 5.25-3.77 6.03-6.91.84-3.35-1.32-4.71-2.14-4.92-.39-.1-.75-.14-1.08-.14l-.01-.01Z" fill="#121214"/></svg>