<svg data-name="Layer 1" xmlns="http://www.w3.org/2000/svg" viewBox="0 0 24 24" class="seo-pages-0" height="24px" role="img" version="1.1" width="24px"><defs><clipPath id="clippath"><circle class="aus-cls-3" cx="12" cy="12" r="12"/></clipPath><style>.aus-cls-3{fill:#0417ad}.aus-cls-4{fill:#fff}.aus-cls-5{fill:#e30a3e}</style></defs><circle class="aus-cls-3" cx="12" cy="12" r="12"/><g style="clip-path: url(&quot;#clippath&quot;);"><path class="aus-cls-4" d="M5.08 2.17v3.89H1.56c.15-.28.32-.56.51-.82s.01-.01.01-.01c.05-.09.11-.18.18-.26l.38.26.04.03c.06.04.13.06.19.06.09 0 .17-.03.24-.09.02-.02.04-.05.06-.07.11-.16.07-.38-.1-.49l-.38-.26c.11-.15.24-.3.37-.44l1.19.81V2.81c.27-.22.54-.44.83-.64ZM12 9.43h-.94l.94.64v.41l-1.53-1.05-.45-.31a.362.362 0 0 0-.49.09.31.31 0 0 0-.06.22c.01.1.06.2.16.27L12 11.33v.68L8.44 9.58v3.56h-.83V8.6H12v.83ZM5.08 8.6v4.54h-.83V9.58L.01 12.46C0 12.3 0 12.14 0 11.98c0-.06 0-.11.01-.17S3.07 9.7 3.07 9.7c.1-.07.15-.17.16-.27a.31.31 0 0 0-.06-.22.362.362 0 0 0-.49-.09l-.45.31-2.18 1.49c.01-.15.02-.29.05-.44l1.54-1.05H.27c.06-.28.13-.56.22-.83h4.59Z"/><path class="aus-cls-5" d="M12 6.06V8.6H7.61v4.54H5.08V8.6H.49c.25-.9.61-1.75 1.07-2.54h3.52V2.17c.78-.55 1.63-1.01 2.53-1.36v5.25H12Z"/><path class="aus-cls-5" d="M3.17 5.16s-.04.05-.06.07c-.07.06-.15.09-.24.09-.06 0-.13-.02-.19-.06l-.04-.03-.38-.26c.06-.1.13-.19.21-.29.07-.09.14-.18.22-.27l.38.26c.17.11.21.33.1.49Z"/><path class="aus-cls-4" d="M9.63 4.67c-.17.11-.21.33-.1.49.02.02.04.05.06.07a.352.352 0 0 0 .43.03l.04-.03L12 3.9v.38l-1.39.95H12v.83H7.61V.81c.27-.11.55-.21.83-.29v4.26L12 2.35v.7L9.63 4.67Z"/><path class="aus-cls-5" d="M12 3.05v.85l-1.94 1.33-.04.03a.352.352 0 0 1-.43-.03c-.02-.02-.04-.05-.06-.07a.346.346 0 0 1 .1-.49L12 3.05ZM3.23 9.43c-.01.1-.06.2-.16.27L.01 11.8c-.01-.15 0-.28.01-.43 0-.15 0-.3.03-.45l2.18-1.49.45-.31c.16-.11.38-.06.49.09.05.07.07.15.06.22ZM12 10.48v.85L9.63 9.7a.37.37 0 0 1-.16-.27c0-.07.01-.15.06-.22.11-.15.33-.2.49-.09l.45.31L12 10.48Z"/></g><circle class="aus-cls-4" cx="20.22" cy="11.4" r="0.53"/><circle class="aus-cls-4" cx="22.01" cy="8.86" r="0.74"/><circle class="aus-cls-4" cx="15.11" cy="9.84" r="0.74"/><circle class="aus-cls-4" cx="18.76" cy="5.95" r="0.74"/><circle class="aus-cls-4" cx="6.33" cy="17.6" r="1.26"/><circle class="aus-cls-4" cx="18.76" cy="19.25" r="0.74"/><path d="M12 0C5.37 0 0 5.37 0 12c0 .39.02.78.06 1.16H12V0Z" style="fill: none;"/></svg>