<svg width="24px" height="24px" viewBox="0 0 24 24" fill="none" xmlns="http://www.w3.org/2000/svg" class="seo-pages-0" role="img" version="1.1"><path fill-rule="evenodd" clip-rule="evenodd" d="M21 6.73a7.3 7.3 0 0 1-2.125.583A3.678 3.678 0 0 0 20.5 5.27c-.708.417-1.5.729-2.333.896A3.777 3.777 0 0 0 15.458 5a3.681 3.681 0 0 0-3.687 3.688c0 .291.02.583.083.854-3.062-.167-5.77-1.563-7.604-3.792-.313.542-.5 1.104-.5 1.792 0 1.27.646 2.396 1.646 3.062a3.757 3.757 0 0 1-1.667-.458v.041a3.69 3.69 0 0 0 2.959 3.626 3.82 3.82 0 0 1-1.667.062 3.68 3.68 0 0 0 3.437 2.563c-1.25 1-2.854 1.75-4.583 1.75-.292 0-.583-.021-.875-.063 1.625 1.042 3.583 1.5 5.667 1.5 6.791 0 10.5-5.625 10.5-10.5v-.48A7.648 7.648 0 0 0 21 6.73Z" fill="#121214"/></svg>