<svg width="30px" height="30px" viewBox="0 0 24 24" fill="none" xmlns="http://www.w3.org/2000/svg" class="seo-pages-12fc1ls-MediaObjectItem" role="img" version="1.1"><path d="M11.991 17.615a.625.625 0 0 1-.625-.625v-4.375H6.991a.625.625 0 0 1 0-1.25h4.375V6.99a.625.625 0 0 1 1.25 0v4.375h4.375a.625.625 0 0 1 0 1.25h-4.375v4.375c0 .345-.28.625-.625.625Z" fill="#121214"/><path fill-rule="evenodd" clip-rule="evenodd" d="M11.991 21.88c-5.454 0-9.891-4.436-9.891-9.89 0-5.453 4.437-9.89 9.891-9.89s9.891 4.437 9.891 9.89c0 5.454-4.437 9.89-9.891 9.89Zm0-18.53c-4.765 0-8.641 3.876-8.641 8.64 0 4.764 3.876 8.64 8.641 8.64 4.765 0 8.641-3.876 8.641-8.64 0-4.764-3.876-8.64-8.641-8.64Z" fill="#121214"/></svg>