<svg xmlns="http://www.w3.org/2000/svg" viewBox="0 0 24 24" class="seo-pages-0" height="24px" role="img" version="1.1" width="24px"><g data-name="Layer 2"><g data-name="Layer 1"><circle class="cls-1" cx="12" cy="12" r="12" style="fill: rgb(10, 23, 167);"/><path d="m22.66 17.49-2.87-1.93h3.67a12 12 0 0 0 0-7.12h-3.67l2.87-1.93a12.25 12.25 0 0 0-1.6-2.36l-5.53 3.73V.53A12.11 12.11 0 0 0 12 0a11.76 11.76 0 0 0-3.58.55v7.33L2.91 4.17a11.93 11.93 0 0 0-1.58 2.37l2.82 1.9H.54a12 12 0 0 0 0 7.12h3.61l-2.82 1.9a11.93 11.93 0 0 0 1.58 2.37l5.51-3.71v7.33A11.76 11.76 0 0 0 12 24a12.11 12.11 0 0 0 3.53-.53v-7.35l5.53 3.73a12.25 12.25 0 0 0 1.6-2.36Z" style="fill: rgb(255, 255, 255);"/><path d="M14.11.2A11.35 11.35 0 0 0 12 0a12.76 12.76 0 0 0-2.16.2v9.67H.2A12.4 12.4 0 0 0 0 12a12.4 12.4 0 0 0 .2 2.13h9.64v9.67A12.76 12.76 0 0 0 12 24a11.35 11.35 0 0 0 2.11-.2v-9.67h9.69A12.4 12.4 0 0 0 24 12a12.4 12.4 0 0 0-.2-2.13h-9.69Z" style="fill: rgb(219, 31, 53);"/><path d="m21.33 4.46-4.72 3.11a.62.62 0 0 0-.18.86.63.63 0 0 0 .52.28.64.64 0 0 0 .35-.1l4.76-3.14a12.37 12.37 0 0 0-.73-1.01ZM22.43 17.92l-3.69-2.49a.62.62 0 1 0-.7 1L21.76 19c.24-.37.46-.72.67-1.08ZM2.23 5.05a11.63 11.63 0 0 0-.67 1l3.67 2.53a.61.61 0 0 0 .86-.17.62.62 0 0 0-.17-.86ZM6.6 15.33l-4.71 3.12q.35.53.72 1l4.68-3.1a.62.62 0 0 0-.69-1Z" style="fill: rgb(219, 31, 53);"/></g></g></svg>