<svg width="30px" height="30px" viewBox="0 0 24 24" fill="none" xmlns="http://www.w3.org/2000/svg" class="seo-pages-12fc1ls-MediaObjectItem" role="img" version="1.1"><path d="M11.936 19.52a.625.625 0 0 1-.625-.626v-4.726H9.05a.626.626 0 0 1 0-1.25h2.26V4.979a.625.625 0 0 1 1.25 0v7.939h2.259a.625.625 0 0 1 0 1.25h-2.26v4.726c0 .345-.28.625-.624.625Z" fill="#121214"/><path fill-rule="evenodd" clip-rule="evenodd" d="M19.204 22.902H4.725a.625.625 0 0 1-.625-.625V1.725c0-.344.28-.625.625-.625h14.479c.344 0 .625.281.625.625v20.552a.626.626 0 0 1-.625.625ZM5.35 21.652h13.229V2.35H5.35v19.302Z" fill="#121214"/></svg>