<svg width="16px" height="16px" viewBox="0 0 16 16" fill="none" xmlns="http://www.w3.org/2000/svg" class="seo-pages-ge4de2" role="img" version="1.1"><path d="M8.13 7.76c-.73.59-.94.94-.95 1.61 0 .33.8.25.8.25.3 0 .56-.19.65-.48.07-.23.21-.42.46-.64 1.11-.95 1.43-1.49 1.42-2.37 0-1.25-.95-2.1-2.55-2.1-1.58 0-2.56 1.13-2.56 2.23v.01c0 .43.39.72.83.65 0 0 .53-.02.52-.55-.01-.68.58-1.09 1.25-1.09.68 0 1.15.37 1.15.94s-.29.96-1.02 1.54ZM7.92 10.39h-.09c-.38 0-.68.31-.68.69v.16c0 .37.3.68.68.68h.09c.37 0 .68-.3.68-.68v-.16c0-.38-.3-.69-.68-.69Z" fill="#121214"/><path fill-rule="evenodd" clip-rule="evenodd" d="M1.2 7.96c0 3.72 3.03 6.76 6.76 6.76s6.76-3.03 6.76-6.76S11.69 1.2 7.96 1.2 1.2 4.24 1.2 7.96Zm1 0c0-3.18 2.58-5.76 5.76-5.76 3.17 0 5.76 2.58 5.76 5.76 0 3.18-2.58 5.76-5.76 5.76-3.18 0-5.76-2.58-5.76-5.76Z" fill="#121214"/></svg>