<svg width="30px" height="30px" viewBox="0 0 24 24" fill="none" xmlns="http://www.w3.org/2000/svg" class="seo-pages-12fc1ls-MediaObjectItem" role="img" version="1.1"><path fill-rule="evenodd" clip-rule="evenodd" d="m17.844 9.377-1.634.931v3.42l1.608.934 1.915-.977a.625.625 0 0 1 .569 1.113l-1.198.61 1.22.709a.625.625 0 0 1-.625 1.082l-1.223-.71.064 1.343a.626.626 0 0 1-.595.655h-.03a.625.625 0 0 1-.623-.595l-.102-2.15-1.615-.938-2.964 1.711v1.858l1.807 1.166a.625.625 0 0 1-.678 1.05l-1.129-.728v1.412a.625.625 0 0 1-1.25 0V19.86l-1.13.73a.626.626 0 0 1-.864-.187.626.626 0 0 1 .187-.864l1.807-1.166v-1.858l-2.959-1.708-1.618.922-.119 2.149a.625.625 0 0 1-.623.59c-.012 0-.023 0-.035-.002a.625.625 0 0 1-.59-.659l.074-1.34-1.226.698a.624.624 0 1 1-.62-1.086l1.228-.7-1.192-.62a.625.625 0 1 1 .576-1.109l1.908.993 1.598-.91v-3.425l-1.6-.93-1.917.978a.627.627 0 0 1-.841-.273.625.625 0 0 1 .273-.84l1.198-.611-1.222-.71a.624.624 0 0 1-.227-.854.623.623 0 0 1 .854-.227l1.222.71-.062-1.343a.624.624 0 1 1 1.248-.059l.1 2.149 1.576.914 2.996-1.73V5.626L9.553 4.458a.625.625 0 0 1 .678-1.05l1.13.73V2.724a.625.625 0 0 1 1.25 0v1.412l1.13-.729a.624.624 0 1 1 .677 1.05l-1.807 1.167v1.858l2.996 1.73 1.618-.922.12-2.147a.625.625 0 1 1 1.248.069l-.075 1.341 1.226-.698a.624.624 0 1 1 .619 1.086l-1.227.7 1.192.62a.625.625 0 1 1-.576 1.108l-1.908-.993Zm-8.831 4.338 2.973 1.716 2.974-1.716v-3.433l-2.974-1.717-2.973 1.717v3.433Z" fill="#121214"/></svg>