<svg width="30px" height="30px" viewBox="0 0 24 24" fill="none" xmlns="http://www.w3.org/2000/svg" class="seo-pages-12fc1ls-MediaObjectItem" role="img" version="1.1"><path d="M11.89 21.78C6.44 21.78 2 17.34 2 11.89S6.44 2 11.89 2s9.89 4.44 9.89 9.89-4.44 9.89-9.89 9.89Zm0-18.53c-4.76 0-8.64 3.88-8.64 8.64 0 4.76 3.88 8.64 8.64 8.64 4.76 0 8.64-3.88 8.64-8.64 0-4.76-3.88-8.64-8.64-8.64Z" fill="#121214"/><path d="M18.17 11.36H16.8V9.99c0-.08-.06-.14-.14-.14H16c-.08 0-.14.06-.14.14v1.36H14.5c-.08 0-.14.06-.14.14v.66c0 .08.06.14.14.14h1.36v1.36c0 .08.06.14.14.14h.66c.08 0 .14-.06.14-.14V12.3h1.36c.08 0 .14-.06.14-.14v-.66c.01-.08-.06-.14-.13-.14ZM9.98 13.7c0-.08-.06-.14-.14-.14H7.95l1.08-1.05c.65-.62.95-1.11.95-1.81 0-.92-.68-1.57-1.89-1.57-1.22 0-1.92.81-1.92 1.66 0 .19.02.34.06.47.04.14.18.12.18.12l.96-.18s.12-.02.09-.15a.852.852 0 0 1-.03-.23c0-.4.31-.63.66-.63.43 0 .68.27.68.64 0 .34-.12.57-.56.99l-2 1.93s-.05.04-.05.12v.65c0 .08.06.14.14.14h3.55c.08 0 .14-.06.14-.14v-.82h-.01ZM13.15 9.23h-.97s-.08-.01-.12.06c-.18.37-.52.58-1.03.62-.17.01-.15.12-.15.12v.92s-.01.12.13.12c.47-.01.78-.11 1.02-.36v3.8c0 .08.06.14.14.14h.97c.08 0 .14-.06.14-.14V9.37c0-.08-.06-.14-.13-.14Z" fill="#121214"/></svg>