<svg width="24px" height="24px" viewBox="0 0 24 24" fill="none" xmlns="http://www.w3.org/2000/svg" class="seo-pages-0" role="img" version="1.1"><path fill-rule="evenodd" clip-rule="evenodd" d="M12 3c-2.444 0-2.75.01-3.71.054-.959.044-1.613.196-2.185.419A4.411 4.411 0 0 0 4.51 4.51c-.5.5-.809 1.002-1.039 1.594-.222.572-.374 1.226-.418 2.184C3.01 9.25 3 9.556 3 12s.01 2.75.054 3.71c.044.959.196 1.613.418 2.185.23.592.538 1.094 1.039 1.594.5.5 1.002.808 1.594 1.038.572.223 1.226.375 2.184.419.96.044 1.267.054 3.71.054 2.445 0 2.752-.01 3.712-.054.958-.044 1.612-.196 2.184-.419a4.41 4.41 0 0 0 1.594-1.038c.5-.5.808-1.002 1.038-1.594.223-.572.375-1.226.419-2.184.043-.96.054-1.267.054-3.711s-.01-2.75-.054-3.71c-.044-.959-.196-1.613-.419-2.185A4.411 4.411 0 0 0 19.49 4.51a4.41 4.41 0 0 0-1.594-1.038c-.572-.223-1.226-.375-2.184-.419C14.75 3.01 14.444 3 12 3Zm0 1.622c2.403 0 2.688.009 3.637.052.877.04 1.354.187 1.67.31.42.163.72.358 1.036.673.315.315.51.615.673 1.035.123.317.27.794.31 1.671.043.95.052 1.234.052 3.637s-.009 2.688-.052 3.637c-.04.877-.187 1.354-.31 1.67a2.79 2.79 0 0 1-.673 1.036c-.315.315-.615.51-1.035.673-.317.123-.794.27-1.671.31-.95.043-1.234.052-3.637.052s-2.688-.009-3.637-.052c-.877-.04-1.354-.187-1.671-.31a2.788 2.788 0 0 1-1.035-.673 2.79 2.79 0 0 1-.673-1.035c-.123-.317-.27-.794-.31-1.671-.043-.95-.052-1.234-.052-3.637s.009-2.688.052-3.637c.04-.877.187-1.354.31-1.67.163-.421.358-.72.673-1.036.315-.315.615-.51 1.035-.673.317-.123.794-.27 1.671-.31.95-.043 1.234-.052 3.637-.052Zm-.017 10.356a3 3 0 1 1 0-6 3 3 0 0 1 0 6Zm0-7.622a4.622 4.622 0 1 0 0 9.243 4.622 4.622 0 0 0 0-9.243Zm5.171-.025a1.08 1.08 0 1 1-2.16 0 1.08 1.08 0 0 1 2.16 0Z" fill="#121214"/></svg>