<svg width="24px" height="24px" viewBox="0 0 24 24" fill="none" xmlns="http://www.w3.org/2000/svg" class="seo-pages-0" role="img" version="1.1"><path fill-rule="evenodd" clip-rule="evenodd" d="M22.54 6.842a2.721 2.721 0 0 0-1.945-1.894C18.875 4.5 12 4.5 12 4.5s-6.875 0-8.595.448c-.95.25-1.692.972-1.945 1.894C1 8.514 1 12 1 12s0 3.486.46 5.158a2.721 2.721 0 0 0 1.945 1.894C5.125 19.5 12 19.5 12 19.5s6.875 0 8.595-.448a2.721 2.721 0 0 0 1.945-1.894C23 15.486 23 12 23 12s0-3.486-.46-5.158ZM9.75 15.166V8.834L15.5 12l-5.75 3.166Z" fill="#121214"/></svg>