<svg width="32px" height="32px" viewBox="0 0 48 48" fill="none" xmlns="http://www.w3.org/2000/svg" class="eudsx7t0 seo-pages-1nl2isx-MediaObjectItem" role="img" version="1.1"><path d="m30.45 26.43-4.38-4.38v-5.78H13.71v14.94c0 2 1.62 3.62 3.62 3.62h5.13c2 0 3.62-1.62 3.62-3.62V26.6l2.11 2.11c.61.61 1.61.61 2.23 0l.04-.05c.61-.61.61-1.62-.01-2.23ZM29.27 10.99a2.49 2.49 0 0 1 2.49-2.49h.84V5.65h-7.97l-2.87 3.23 2.1 2.1h5.41" fill="#E0CAFF"/><path fill-rule="evenodd" clip-rule="evenodd" d="M22.218 11.118 20.87 9.77c-.47-.47-.49-1.22-.05-1.71l2.87-3.23c.23-.28.57-.43.93-.43h7.97c.69 0 1.25.56 1.25 1.25v3.06c0 .69-.56 1.25-1.25 1.25h-1.05c-.441 0-.816.275-.963.664l2.653 3.156c.19.22.29.51.29.8v.45h3.24c.69 0 1.25.56 1.25 1.25v5.78c0 .395-.184.748-.47.977 1.907 2.347 3.25 4.938 3.85 7.473.81 3.43.2 6.38-1.73 8.31-.68.68-1.5 1.21-2.44 1.56a8.89 8.89 0 0 1-2.399.497l-.001.013c-.13 1.56-1.47 2.79-3.05 2.79H12.25c-1.59 0-2.92-1.24-3.05-2.82L7.811 23.31H7.25c-.69 0-1.25-.56-1.25-1.25v-5.78c0-.69.56-1.25 1.25-1.25h13.5v-1.49c0-.26.08-.52.24-.73l1.228-1.692Zm6.454 1.122h-4.17l-1.242 1.72v1.07h7.762l-2.35-2.79Zm6.357 26.105a5.976 5.976 0 0 0 1.311-.305c.6-.22 1.12-.56 1.55-.98 1.3-1.29 1.67-3.41 1.07-5.97-.465-1.951-1.451-3.958-2.854-5.83L35.03 38.346Zm.45-17.535a22.746 22.746 0 0 0-3.419-2.69c-.58-.37-1.36-.2-1.73.38-.37.58-.2 1.36.38 1.73a20.033 20.033 0 0 1 3.102 2.448L32.33 40.68c-.03.29-.27.51-.56.51H12.25c-.29 0-.54-.22-.56-.51l-1.374-17.37h.164a1.25 1.25 0 0 0 0-2.5H8.5v-3.28h3.96v13.69c0 2.69 2.19 4.87 4.87 4.87h5.13c2.68 0 4.87-2.18 4.87-4.86v-1.61c1.07 1.04 2.87 1.07 4.01-.07.54-.54.83-1.24.83-2s-.3-1.47-.83-2l-4.01-4.01v-4.01h8.18v3.28h-.03ZM28.25 9.74h-3.88l-.9-.91 1.72-1.93h6.16v.57c-1.42.08-2.62 1-3.1 2.27ZM22 17.53h-7.04v13.69a2.37 2.37 0 0 0 1.6 2.242V26.3a1.25 1.25 0 0 1 2.5 0v7.29h1.54v-7.26a1.25 1.25 0 0 1 2.5 0v7.173a2.37 2.37 0 0 0 1.73-2.283V26.6c0-.51.3-.96.77-1.16.47-.19 1.01-.09 1.36.27l2.11 2.11c.16.16.3.16.46 0 .13-.13.14-.22.14-.27 0-.05-.01-.15-.09-.23l-4.38-4.38c-.23-.23-.37-.55-.37-.88v-4.53H22Z" fill="#593CFB"/><path d="M35.64 9.21c-.69 0-1.25-.56-1.25-1.25V5.83a1.25 1.25 0 0 1 2.5 0v2.13c0 .69-.56 1.25-1.25 1.25Z" fill="#593CFB"/><path fill-rule="evenodd" clip-rule="evenodd" d="M8.74 10.63c0 1.93 1.57 3.51 3.51 3.51 1.94 0 3.51-1.58 3.51-3.51 0-1.93-1.57-3.51-3.51-3.51-1.93 0-3.51 1.58-3.51 3.51Zm2.5-.01c0-.56.45-1.01 1.01-1.01s1.01.45 1.01 1.01-.45 1.01-1.01 1.01-1.01-.45-1.01-1.01Z" fill="#593CFB"/><path d="M16.56 7.07a1.24 1.24 0 1 0 0-2.48 1.24 1.24 0 0 0 0 2.48Z" fill="#593CFB"/></svg>